<svg xmlns="http://www.w3.org/2000/svg" data-name="Слой 1" viewBox="0 0 100 70" x="0px" y="0px"><title>wave-01-01-01-01-01-01-01-01-01-01-01-01-01-01-01-01</title><g><path d="M83.21141,38.58579c-2.91959.11368-4.76885,1.8592-6.48341,3.8389-0.66991.77347-1.28912,1.597-2.01227,2.31648a2.35794,2.35794,0,0,1-2.80574.539c-2.68848-1.098-3.08579-3.02026-2.885-5.60955a4.48779,4.48779,0,0,1,.49985-1.651c0.96946-1.88759-.2287-3.55009-2.23576-3.78618a7.30466,7.30466,0,0,0-6.838,2.47774,21.49409,21.49409,0,0,0-2.42,3.66092c-1.057,1.96643-2.16161,3.86449-4.532,4.38668-2.25064.49581-4.54939,0.73684-6.46663-.95152a5.53041,5.53041,0,0,1-1.268-1.94475c-0.55352-1.27269-.78656-2.71418-2.26228-3.37667a2.78426,2.78426,0,0,0-4.06326,1.8581,20.5909,20.5909,0,0,0-.43431,2.25589,4.63176,4.63176,0,0,1-3.83277,4.1394,5.113,5.113,0,0,1-5.10668-2.15349c-0.95717-1.57041-1.7701-3.23092-2.6077-4.8716a7.438,7.438,0,0,0-10.9455-2.63c-1.666,1.15615-3.19835,2.38034-3.64931,4.49285-0.153.71663-.21926,1.45131-0.35,2.17326a7.12269,7.12269,0,0,1-1.72005,4.08993A6.7894,6.7894,0,0,1,4.583,48.99005a4.49609,4.49609,0,0,1-2.76443-2.71959,2.39855,2.39855,0,0,1-.17021-1.01973,0.65313,0.65313,0,0,1,.4403-0.46512,0.70129,0.70129,0,0,1,.54453.37454,4.476,4.476,0,0,0,6.5224,2.7157,4.27249,4.27249,0,0,0,2.23152-3.38841,20.88793,20.88793,0,0,1,.8383-3.92252,9.12546,9.12546,0,0,1,7.76288-5.89333A7.61461,7.61461,0,0,1,25.882,36.02505a11.53751,11.53751,0,0,1,2.36784,2.94188c0.97222,1.5603,1.71785,3.26134,2.68286,4.82668a3.978,3.978,0,0,0,5.90963.99622c1.1047-.98032,1.17668-2.42115,1.40933-3.78279a6.60909,6.60909,0,0,1,.70865-2.24652c1.14116-1.91625,2.93-1.905,4.70728-1.3805a3.70332,3.70332,0,0,1,2.7989,3.1912,4.46788,4.46788,0,0,0,4.32964,3.48845c3.329,0.03269,5.23127-1.20315,6.518-4.313a9.9464,9.9464,0,0,1,6.4991-6.19115c1.577-.45865,3.273-0.85814,4.88793-0.04962,1.99251,0.9976,2.58406,2.009,2.05982,4.15056a20.28518,20.28518,0,0,0-.60617,3.64984c-0.08252,1.46182.92242,2.33585,2.1055,2.94079a1.54264,1.54264,0,0,0,2.10156-.49593,33.71808,33.71808,0,0,1,3.96624-4.30037c3.14465-2.67413,6.72645-2.24073,9.80273-.05a2.59215,2.59215,0,0,1,.80738,3.04749c-0.21306.77037-.41629,1.54416-0.65577,2.3064a2.84362,2.84362,0,0,0,2.76366,3.69621c1.14162,0.05936,2.29255-.04909,3.43881-0.09425,0.83359-.03285,1.66792-0.13151,2.4987-0.10391a2.12793,2.12793,0,0,1,.81279.49225,2.98517,2.98517,0,0,1-.78571.3694c-1.13488.16563-2.28036,0.25858-3.41555,0.42242a7.66683,7.66683,0,0,1-5.00867-.86015,3.05558,3.05558,0,0,1-1.46856-3.45788,15.35048,15.35048,0,0,1,.64155-2.50507c0.678-1.79207-.2306-2.726-1.62356-3.34722A18.21583,18.21583,0,0,0,83.21141,38.58579Z"/><path d="M9.31488,64.87226A2.85145,2.85145,0,0,1,9.71641,62.153a8.68152,8.68152,0,0,1,3.92181-3.12179,14.69347,14.69347,0,0,1,2.6147-.92952,4.46244,4.46244,0,0,1,4.40593,1.20417c1.46847,1.32047,2.96971,2.60482,4.46737,3.89245A5.29143,5.29143,0,0,0,30.92,64.30242a14.66338,14.66338,0,0,1,1.85885-.48685c2.888-.73344,4.92008-2.62929,6.70187-4.88816A10.9998,10.9998,0,0,1,41.1794,57.132c2.03781-1.63319,3.92463-.55989,5.77576.44908,1.49688,0.81588,2.17428,2.285,2.84067,3.74379A9.45828,9.45828,0,0,0,52.071,64.55608a5.63082,5.63082,0,0,0,7.00412.13277,12.54,12.54,0,0,0,2.10444-1.94134c0.74158-.84439,2.78962-1.39835,3.79361-0.33428A6.88869,6.88869,0,0,0,68.98579,64.855a5.1637,5.1637,0,0,0,4.28968-1.10286,30.39419,30.39419,0,0,1,3.88808-2.77318c2.01927-1.15325,4.20026-.81585,6.33752-0.27228a1.24758,1.24758,0,0,1,.67922.49854c1.2789,2.02142,3.12832,2.27676,5.28878,1.87329,1.65944-.3099,3.37268-0.349,5.0185-0.70789a17.126,17.126,0,0,0,2.7893-1.227,5.71912,5.71912,0,0,1,1.0795-.23111,2.17343,2.17343,0,0,1-.31978,1.09464,14.58347,14.58347,0,0,1-3.5829,1.45442c-2.19375.41546-4.4394,0.56075-6.66522,0.80153-1.4765.15972-2.88116-.03524-3.66613-1.46927-0.9278-1.695-4.59855-2.02585-6.29232-1.0183-1.17429.69855-2.23576,1.58541-3.40223,2.2989a12.13147,12.13147,0,0,1-3.3605,1.73653A6.51887,6.51887,0,0,1,64.98863,64.048c-1.38286-1.29421-1.82455-1.32927-3.32385-.12484a19.30207,19.30207,0,0,1-3.15465,2.1592c-3.73018,1.92732-6.8994.537-9.004-2.8135-0.64508-1.02694-1.13689-2.15008-1.7-3.22857-0.87364-1.67313-3.43538-3.0114-5.18913-2.42113a5.85666,5.85666,0,0,0-2.31678,1.87447c-1.32929,1.581-2.614,3.28512-4.50648,4.11527A40.88248,40.88248,0,0,1,28.795,65.877a4.37932,4.37932,0,0,1-2.69845-.73765,24.08712,24.08712,0,0,1-5.53632-4.23253c-2.1475-2.17085-4.13257-2.36184-6.81059-.90063a6.82125,6.82125,0,0,0-3.5653,3.94A3.6242,3.6242,0,0,1,9.31488,64.87226Z"/><path d="M89.35278,56.11882c-2.72367-.19669-5.00895-0.34286-6.76418-2.23705-0.65765-.7097-1.587-0.2325-2.34665.07627-1.27.51623-2.49406,1.14712-3.76986,1.64713a4.51961,4.51961,0,0,1-4.56071-.75534A29.423,29.423,0,0,1,69.59466,52.996a6.07393,6.07393,0,0,0-5.105-1.33069A5.62308,5.62308,0,0,0,60.507,53.88453a3.50067,3.50067,0,0,1-3.34768,1.27568,10.8686,10.8686,0,0,1-7.01989-3.51788A12.0613,12.0613,0,0,0,47.024,49.14318c-2.48637-1.35757-6.37706.06737-7.64082,2.6435a6.39761,6.39761,0,0,1-8.1966,3.12723A13.801,13.801,0,0,1,24.532,49.36658a3.96772,3.96772,0,0,0-6.97394.26139,11.33811,11.33811,0,0,1-5.31063,4.90392,6.55227,6.55227,0,0,1-6.89939-.66876c-0.33938-.23465-0.8662-0.52745-0.38674-1.06066,0.40167-.44669.70422-0.14985,1.11975,0.14341a5.94926,5.94926,0,0,0,6.51284.45837A8.535,8.535,0,0,0,16.631,49.09217c1.18374-2.59633,5.88722-4.07294,8.40926-.8705,0.79121,1.00466,1.62027,1.97946,2.428,2.97117,1.3998,1.71859,3.37528,2.46886,5.36511,3.19527a0.96777,0.96777,0,0,0,.19044.02672A5.35135,5.35135,0,0,0,38.39371,51.47c0.94155-2.53616,2.94236-3.24867,5.32846-3.74139,3.31633-.6848,5.395,1.11332,7.37088,3.25233a9.43962,9.43962,0,0,0,6.60327,3.15225c1.3265,0.08312,1.96683-.81145,2.65649-1.6228A5.568,5.568,0,0,1,64.16828,50.54a8.393,8.393,0,0,1,7.40061,2.59537,4.39271,4.39271,0,0,0,3.89617,1.66344,15.73456,15.73456,0,0,0,3.113-1.12144,19.59277,19.59277,0,0,1,2.81749-1.16676,2.32657,2.32657,0,0,1,1.92086.40505,6.79149,6.79149,0,0,0,6.293,2.1017c1.66762-.18449,3.29255-0.73754,4.94674-1.07613a2.81665,2.81665,0,0,1,.99419.17811,1.97884,1.97884,0,0,1-.584.84767C92.97706,55.42345,90.96888,55.79693,89.35278,56.11882Z"/></g></svg>