<svg xmlns="http://www.w3.org/2000/svg" x="0px" y="0px"
width="32" height="32"
viewBox="0 0 172 172"
style=" fill:#000000;"><g fill="none" fill-rule="nonzero" stroke="none" stroke-width="1" stroke-linecap="butt" stroke-linejoin="miter" stroke-miterlimit="10" stroke-dasharray="" stroke-dashoffset="0" font-family="none" font-weight="none" font-size="none" text-anchor="none" style="mix-blend-mode: normal"><path d="M0,172v-172h172v172z" fill="none"></path><g fill="#ffffff"><path d="M69.875,10.75c-2.98145,0 -5.375,2.39355 -5.375,5.375v8.39844c-4.2832,1.25977 -8.31445,2.93946 -12.09375,5.03906l-5.96289,-5.96289c-2.09961,-2.05763 -5.54297,-2.05763 -7.64258,0l-15.20117,15.20117c-2.05763,2.09961 -2.05763,5.54297 0,7.64258l6.04688,5.96289c-2.1416,3.82129 -3.82129,7.85254 -5.03906,12.09375h-8.48243c-2.98145,0 -5.375,2.39355 -5.375,5.375v21.5c0,2.98145 2.39355,5.375 5.375,5.375h8.39844c1.25977,4.28321 2.93946,8.31446 5.03906,12.09375l-5.96289,6.00489c-2.05763,2.05761 -2.05763,5.50098 0,7.60058l15.20117,15.15918c2.09961,2.09961 5.54297,2.09961 7.64258,0l5.96289,-5.96289c3.7793,2.0996 7.81055,3.77929 12.09375,5.03906v8.44043c0,2.98145 2.39355,5.375 5.375,5.375h21.5c2.93946,0 5.33301,-2.39355 5.375,-5.375v-8.39844c4.28321,-1.25976 8.31446,-2.93945 12.09375,-5.03906l6.00489,5.9209c2.05761,2.09961 5.50098,2.09961 7.60058,0l15.15918,-15.15918c2.09961,-2.0996 2.09961,-5.54297 0,-7.60058l-6.00487,-6.00489c2.0996,-3.77929 3.82128,-7.81054 5.08105,-12.09375h8.44043c2.98145,0 5.375,-2.39355 5.375,-5.375v-21.5c0,-2.98145 -2.39355,-5.375 -5.375,-5.375h-8.48242c-1.21778,-4.24121 -2.85547,-8.31445 -4.95508,-12.13574l5.9209,-5.9209c2.09961,-2.09961 2.09961,-5.54297 0,-7.64258l-15.15918,-15.20117c-1.00781,-1.00781 -2.39355,-1.55372 -3.82129,-1.55372c-1.42773,0 -2.77148,0.54591 -3.77929,1.55372l-5.9629,5.96289c-3.77929,-2.1416 -7.85253,-3.82129 -12.13574,-5.08105v-8.35645c0,-2.98145 -2.39355,-5.375 -5.375,-5.375zM75.25,21.5h10.75v6.4668c0,2.56152 1.80567,4.74511 4.28321,5.29101c6.17284,1.21777 11.88378,3.65332 16.96484,7.05469c2.14159,1.38574 4.99706,1.0918 6.80273,-0.71386l4.57715,-4.57715l7.60059,7.60058l-4.61915,4.57715c-1.76367,1.84766 -2.05761,4.66114 -0.67187,6.80274c3.35938,4.99706 5.66895,10.75 6.92871,16.96484c0.54591,2.47753 2.7295,4.2832 5.29102,4.2832h6.59277v10.75h-6.55078c-2.56152,0 -4.74511,1.80567 -5.24902,4.3252c-1.25977,6.08886 -3.7373,11.75781 -7.09668,16.83886c-1.42774,2.1416 -1.13379,4.95508 0.67188,6.76074l4.70313,4.70313l-7.60059,7.60059l-4.70312,-4.66114c-1.76367,-1.80567 -4.61914,-2.09961 -6.76074,-0.67187c-5.12304,3.35938 -10.75,5.87891 -16.88085,7.09668c-2.47754,0.50391 -4.28321,2.72949 -4.28321,5.29102v6.46679h-10.75v-6.55078c0,-2.56152 -1.80567,-4.74511 -4.3252,-5.24902c-6.08886,-1.25977 -11.75781,-3.7373 -16.83886,-7.09668c-2.1416,-1.38575 -4.99707,-1.13379 -6.80273,0.71386l-4.66114,4.66114l-7.60058,-7.60059l4.66112,-4.66112c1.80567,-1.80567 2.09961,-4.61915 0.71388,-6.76075c-3.40138,-5.16503 -5.92091,-10.79199 -7.13868,-16.92284c-0.5459,-2.47754 -2.72949,-4.28321 -5.29101,-4.28321h-6.4668v-10.75h6.55078c2.56152,0 4.74511,-1.80567 5.29102,-4.2832c1.21777,-6.13086 3.69531,-11.79981 7.05469,-16.88086c1.38574,-2.1416 1.13378,-4.99707 -0.67187,-6.80273l-4.70312,-4.66114l7.60058,-7.60058l4.66114,4.66112c1.80566,1.80567 4.61914,2.09961 6.76074,0.71388c5.16504,-3.40138 10.79199,-5.92091 16.92285,-7.13868c2.47753,-0.5459 4.2832,-2.72949 4.2832,-5.29101zM81.54883,53.75c-14.73926,-0.50391 -27.25294,11.16993 -27.79883,25.95118c-0.50391,14.73925 11.16993,27.25293 25.95118,27.79882c14.73925,0.50391 27.25293,-11.16992 27.79882,-25.95117c0.50391,-14.73926 -11.16992,-27.25294 -25.95117,-27.79883zM81.2129,64.5c8.94433,0.33594 15.87304,7.72656 15.5371,16.7129c-0.33594,8.94433 -7.72656,15.87304 -16.71289,15.5371c-8.94434,-0.33594 -15.87305,-7.72656 -15.53711,-16.71289c0.33594,-8.94434 7.72656,-15.87305 16.7129,-15.53711z"></path></g></g></svg>